<?xml version="1.0" encoding="UTF-8" standalone="no"?>
<svg width="20px" height="19px" viewBox="0 0 20 19" version="1.1" xmlns="http://www.w3.org/2000/svg" xmlns:xlink="http://www.w3.org/1999/xlink" xmlns:sketch="http://www.bohemiancoding.com/sketch/ns">
    <!-- Generator: bin/sketchtool 1.3 (232) - http://www.bohemiancoding.com/sketch -->
    <title>icn-search</title>
    <desc>Created with bin/sketchtool.</desc>
    <defs></defs>
    <g id="hp" stroke="none" stroke-width="1" fill="none" fill-rule="evenodd" sketch:type="MSPage">
        <g id="-hp_grid" sketch:type="MSArtboardGroup" transform="translate(-20.000000, -1198.000000)" fill="#A1AEBC">
            <g id="SEARCH" sketch:type="MSLayerGroup" transform="translate(20.000000, 1189.000000)">
                <g id="icn-search" transform="translate(0.000000, 8.000000)" sketch:type="MSShapeGroup">
                    <path d="M19.5000232,18.1170413 C19.5000232,17.738148 19.3359606,17.3703987 19.066429,17.1140886 L15.0468929,13.2917242 C15.9961128,11.9878857 16.5000197,10.427737 16.5000197,8.84530046 C16.5000197,4.51031586 12.808609,0.999981295 8.25000983,0.999981295 C3.69141065,0.999981295 0,4.51031586 0,8.84530046 C0,13.1802851 3.69141065,16.6906196 8.25000983,16.6906196 C9.91407432,16.6906196 11.5547013,16.2114311 12.9257967,15.3087736 L16.9453327,19.119994 C17.2148643,19.3874481 17.6015835,19.543463 18.0000215,19.543463 C18.8203349,19.543463 19.5000232,18.8971156 19.5000232,18.1170413 Z M13.5000161,8.84530046 C13.5000161,11.5978485 11.1445445,13.8377763 8.25000983,13.8377763 C5.35547513,13.8377763 3.00000358,11.5978485 3.00000358,8.84530046 C3.00000358,6.0927524 5.35547513,3.85282463 8.25000983,3.85282463 C11.1445445,3.85282463 13.5000161,6.0927524 13.5000161,8.84530046 Z" id="Icons/Search"></path>
                </g>
            </g>
        </g>
    </g>
</svg>