<?xml version="1.0" encoding="UTF-8" standalone="no"?>
<svg width="58px" height="74px" viewBox="0 0 58 74" version="1.1" xmlns="http://www.w3.org/2000/svg" xmlns:xlink="http://www.w3.org/1999/xlink" xmlns:sketch="http://www.bohemiancoding.com/sketch/ns">
    <!-- Generator: bin/sketchtool 1.3 (232) - http://www.bohemiancoding.com/sketch -->
    <title>scrn-smartphone</title>
    <desc>Created with bin/sketchtool.</desc>
    <defs></defs>
    <g id="hp" stroke="none" stroke-width="1" fill="none" fill-rule="evenodd" sketch:type="MSPage">
        <g id="-hp_grid" sketch:type="MSArtboardGroup" transform="translate(-849.000000, -1431.000000)">
            <g id="hovers" sketch:type="MSLayerGroup" transform="translate(20.000000, 719.000000)">
                <g id="commission-hovers" transform="translate(175.000000, 615.000000)" sketch:type="MSShapeGroup">
                    <g id="scrn-smartphone" transform="translate(654.000000, 97.000000)">
                        <path d="M0,2.99043333 C0,1.89114735 0.887832139,1 1.99649128,1 L56.0035087,1 C57.1061404,1 58,1.89665296 58,2.99043333 L58,72.0095667 C58,73.1088526 57.1121679,74 56.0035087,74 L1.99649128,74 C0.893859594,74 0,73.103347 0,72.0095667 L0,2.99043333 Z M12.09736,13.6194791 C12.09736,12.5141931 12.9831263,11.6181818 14.0943218,11.6181818 L43.2161468,11.6181818 C44.3190383,11.6181818 45.2131086,12.5124837 45.2131086,13.6194791 L45.2131086,58.7259754 C45.2131086,59.8312614 44.3273423,60.7272727 43.2161468,60.7272727 L14.0943218,60.7272727 C12.9914302,60.7272727 12.09736,59.8329709 12.09736,58.7259754 L12.09736,13.6194791 Z" id="Rectangle-212" fill="#FFFFFF"></path>
                        <rect id="Path-2" stroke="#C6D0DA" x="10.1872181" y="0" width="37.6255638" height="73" rx="4"></rect>
                    </g>
                </g>
            </g>
        </g>
    </g>
</svg>