<?xml version="1.0" encoding="UTF-8" standalone="no"?>
<svg width="80px" height="80px" viewBox="0 0 80 80" version="1.1" xmlns="http://www.w3.org/2000/svg" xmlns:xlink="http://www.w3.org/1999/xlink" xmlns:sketch="http://www.bohemiancoding.com/sketch/ns">
    <!-- Generator: Sketch 3.3.2 (12043) - http://www.bohemiancoding.com/sketch -->
    <title>scrn-flat-screen</title>
    <desc>Created with Sketch.</desc>
    <defs></defs>
    <g id="hp" stroke="none" stroke-width="1" fill="none" fill-rule="evenodd" sketch:type="MSPage">
        <g id="-hp_grid" sketch:type="MSArtboardGroup" transform="translate(-298.000000, -1519.000000)">
            <g id="hovers" sketch:type="MSLayerGroup" transform="translate(20.000000, 719.000000)">
                <g id="commission-hovers" transform="translate(165.000000, 435.000000)" sketch:type="MSShapeGroup">
                    <g id="scrn-flat-screen" transform="translate(113.000000, 365.000000)">
                        <path d="M0,1.99749826 C0,0.894310431 0.8984375,0 1.99749826,0 L78.0025017,0 C79.1056896,0 80,0.8984375 80,1.99749826 L80,78.0025017 C80,79.1056896 79.1015625,80 78.0025017,80 L1.99749826,80 C0.894310431,80 0,79.1015625 0,78.0025017 L0,1.99749826 Z M17,15 L64,15 L64,65 L17,65 L17,15 Z" id="Rectangle-212-Copy-4" fill="#FFFFFF" transform="translate(40.000000, 40.000000) rotate(-90.000000) translate(-40.000000, -40.000000) "></path>
                        <rect id="Rectangle-215" stroke="#D8D8D8" stroke-width="2" fill="#FFFFFF" x="21" y="70" width="38" height="3"></rect>
                        <rect id="Rectangle-216" stroke="#D8D8D8" stroke-width="2" fill="#FFFFFF" x="31" y="66" width="18" height="3"></rect>
                        <path d="M11,17.9909141 C11,16.8913626 11.8878321,16 12.9964913,16 L67.0035087,16 C68.1061404,16 69,16.8890643 69,17.9909141 L69,64.0090859 C69,65.1086374 68.1121679,66 67.0035087,66 L12.9964913,66 C11.8938596,66 11,65.1109357 11,64.0090859 L11,17.9909141 Z M15,21.9974922 C15,20.8943077 15.8890643,20 16.9909141,20 L63.0090859,20 C64.1086374,20 65,20.8966603 65,21.9974922 L65,60.0025078 C65,61.1056923 64.1109357,62 63.0090859,62 L16.9909141,62 C15.8913626,62 15,61.1033397 15,60.0025078 L15,21.9974922 Z" id="Rectangle-211" fill="#D8D8D8"></path>
                    </g>
                </g>
            </g>
        </g>
    </g>
</svg>