<?xml version="1.0" encoding="UTF-8" standalone="no"?>
<svg width="80px" height="80px" viewBox="0 0 80 80" version="1.1" xmlns="http://www.w3.org/2000/svg" xmlns:xlink="http://www.w3.org/1999/xlink" xmlns:sketch="http://www.bohemiancoding.com/sketch/ns">
    <!-- Generator: Sketch 3.3.2 (12043) - http://www.bohemiancoding.com/sketch -->
    <title>scrn-smartphone</title>
    <desc>Created with Sketch.</desc>
    <defs></defs>
    <g id="hp" stroke="none" stroke-width="1" fill="none" fill-rule="evenodd" sketch:type="MSPage">
        <g id="-hp_grid" sketch:type="MSArtboardGroup" transform="translate(-839.000000, -1428.000000)">
            <g id="hovers" sketch:type="MSLayerGroup" transform="translate(20.000000, 719.000000)">
                <g id="commission-hovers" transform="translate(165.000000, 435.000000)" sketch:type="MSShapeGroup">
                    <g id="scrn-smartphone" transform="translate(654.000000, 274.000000)">
                        <path d="M0,1.99749826 C0,0.894310431 0.8984375,0 1.99749826,0 L78.0025017,0 C79.1056896,0 80,0.8984375 80,1.99749826 L80,78.0025017 C80,79.1056896 79.1015625,80 78.0025017,80 L1.99749826,80 C0.894310431,80 0,79.1015625 0,78.0025017 L0,1.99749826 Z M22.09736,16.6194791 C22.09736,15.5141931 22.9831263,14.6181818 24.0943218,14.6181818 L53.2161468,14.6181818 C54.3190383,14.6181818 55.2131086,15.5124837 55.2131086,16.6194791 L55.2131086,61.7259754 C55.2131086,62.8312614 54.3273423,63.7272727 53.2161468,63.7272727 L24.0943218,63.7272727 C22.9914302,63.7272727 22.09736,62.8329709 22.09736,61.7259754 L22.09736,16.6194791 Z" id="Rectangle-212" fill="#FFFFFF"></path>
                        <rect id="Path-2" stroke="#C6D0DA" x="20.1872181" y="3" width="37.6255638" height="73" rx="4"></rect>
                    </g>
                </g>
            </g>
        </g>
    </g>
</svg>