<?xml version="1.0" encoding="UTF-8" standalone="no"?>
<svg width="80px" height="80px" viewBox="0 0 80 80" version="1.1" xmlns="http://www.w3.org/2000/svg" xmlns:xlink="http://www.w3.org/1999/xlink" xmlns:sketch="http://www.bohemiancoding.com/sketch/ns">
    <!-- Generator: Sketch 3.3.2 (12043) - http://www.bohemiancoding.com/sketch -->
    <title>scrn-smartphone_horizontal</title>
    <desc>Created with Sketch.</desc>
    <defs></defs>
    <g id="hp" stroke="none" stroke-width="1" fill="none" fill-rule="evenodd" sketch:type="MSPage">
        <g id="-hp_grid" sketch:type="MSArtboardGroup" transform="translate(-207.000000, -1340.000000)">
            <g id="hovers" sketch:type="MSLayerGroup" transform="translate(20.000000, 719.000000)">
                <g id="commission-hovers" transform="translate(165.000000, 435.000000)" sketch:type="MSShapeGroup">
                    <g id="scrn-smartphone_horizontal" transform="translate(62.000000, 226.000000) rotate(-90.000000) translate(-62.000000, -226.000000) translate(22.000000, 186.000000)">
                        <path d="M12,12.9948984 C12,11.8931464 12.8922172,11 14.0020903,11 L63.9979097,11 C65.1036337,11 66,11.8858292 66,12.9948984 L66,70.0051016 C66,71.1068536 65.1077828,72 63.9979097,72 L14.0020903,72 C12.8963663,72 12,71.1141708 12,70.0051016 L12,12.9948984 Z M24,17.9968516 C24,16.8940209 24.8919411,16 25.9999204,16 L56.0000796,16 C57.1046051,16 58,16.8923153 58,17.9968516 L58,63.0031484 C58,64.1059791 57.1080589,65 56.0000796,65 L25.9999204,65 C24.8953949,65 24,64.1076847 24,63.0031484 L24,17.9968516 Z" id="Rectangle-212" fill="#FFFFFF"></path>
                        <path d="M0,1.99749826 C0,0.894310431 0.8984375,0 1.99749826,0 L78.0025017,0 C79.1056896,0 80,0.8984375 80,1.99749826 L80,78.0025017 C80,79.1056896 79.1015625,80 78.0025017,80 L1.99749826,80 C0.894310431,80 0,79.1015625 0,78.0025017 L0,1.99749826 Z M15,15 L65,15 L65,65 L15,65 L15,15 Z" id="Rectangle-212-Copy-2" fill="#FFFFFF" transform="translate(40.000000, 40.000000) rotate(-90.000000) translate(-40.000000, -40.000000) "></path>
                        <rect id="Path-2" stroke="#C6D0DA" x="22" y="4" width="38" height="73" rx="4"></rect>
                    </g>
                </g>
            </g>
        </g>
    </g>
</svg>