<?xml version="1.0" encoding="UTF-8" standalone="no"?>
<svg width="80px" height="80px" viewBox="0 0 80 80" version="1.1" xmlns="http://www.w3.org/2000/svg" xmlns:xlink="http://www.w3.org/1999/xlink" xmlns:sketch="http://www.bohemiancoding.com/sketch/ns">
    <!-- Generator: Sketch 3.3.2 (12043) - http://www.bohemiancoding.com/sketch -->
    <title>scrn-wide_screen</title>
    <desc>Created with Sketch.</desc>
    <defs></defs>
    <g id="hp" stroke="none" stroke-width="1" fill="none" fill-rule="evenodd" sketch:type="MSPage">
        <g id="-hp_grid" sketch:type="MSArtboardGroup" transform="translate(-388.000000, -1519.000000)">
            <g id="hovers" sketch:type="MSLayerGroup" transform="translate(20.000000, 719.000000)">
                <g id="commission-hovers" transform="translate(165.000000, 435.000000)" sketch:type="MSShapeGroup">
                    <g id="scrn-wide_screen" transform="translate(203.000000, 365.000000)">
                        <path d="M0,1.99749826 C0,0.894310431 0.8984375,0 1.99749826,0 L78.0025017,0 C79.1056896,0 80,0.8984375 80,1.99749826 L80,78.0025017 C80,79.1056896 79.1015625,80 78.0025017,80 L1.99749826,80 C0.894310431,80 0,79.1015625 0,78.0025017 L0,1.99749826 Z M15,15 L65,15 L65,65 L15,65 L15,15 Z" id="Rectangle-212-Copy-3" fill="#FFFFFF" transform="translate(40.000000, 40.000000) rotate(-90.000000) translate(-40.000000, -40.000000) "></path>
                        <path d="M25.5,74.5 L55.5,74.5" id="Line" stroke="#C6D0DA" stroke-linecap="square"></path>
                        <path d="M33.5,70.5 L48.5,70.5" id="Line-10" stroke="#C6D0DA" stroke-width="3" stroke-linecap="square"></path>
                        <rect id="Rectangle-211" stroke="#C6D0DA" x="0" y="13" width="80" height="54" rx="2"></rect>
                        <rect id="Rectangle-235" fill="#F7F7F7" x="2" y="15" width="13" height="50"></rect>
                        <rect id="Rectangle-236" fill="#F7F7F7" x="65" y="15" width="13" height="50"></rect>
                    </g>
                </g>
            </g>
        </g>
    </g>
</svg>