<?xml version="1.0" encoding="UTF-8" standalone="no"?>
<svg width="80px" height="80px" viewBox="0 0 80 80" version="1.1" xmlns="http://www.w3.org/2000/svg" xmlns:xlink="http://www.w3.org/1999/xlink" xmlns:sketch="http://www.bohemiancoding.com/sketch/ns">
    <!-- Generator: Sketch 3.3.2 (12043) - http://www.bohemiancoding.com/sketch -->
    <title>scrn-tablet</title>
    <desc>Created with Sketch.</desc>
    <defs></defs>
    <g id="hp" stroke="none" stroke-width="1" fill="none" fill-rule="evenodd" sketch:type="MSPage">
        <g id="-hp_grid" sketch:type="MSArtboardGroup" transform="translate(-929.000000, -1339.000000)">
            <g id="hovers" sketch:type="MSLayerGroup" transform="translate(20.000000, 719.000000)">
                <g id="commission-hovers" transform="translate(165.000000, 435.000000)" sketch:type="MSShapeGroup">
                    <g id="scrn-tablet" transform="translate(744.000000, 185.000000)">
                        <path d="M0,1.99749826 C0,0.894310431 0.8984375,0 1.99749826,0 L78.0025017,0 C79.1056896,0 80,0.8984375 80,1.99749826 L80,78.0025017 C80,79.1056896 79.1015625,80 78.0025017,80 L1.99749826,80 C0.894310431,80 0,79.1015625 0,78.0025017 L0,1.99749826 Z M19.363934,15.6194791 C19.363934,14.5141931 20.2650645,13.6181818 21.3688788,13.6181818 L57.7892873,13.6181818 C58.8965877,13.6181818 59.7942321,14.5124837 59.7942321,15.6194791 L59.7942321,60.7259754 C59.7942321,61.8312614 58.8931015,62.7272727 57.7892873,62.7272727 L21.3688788,62.7272727 C20.2615783,62.7272727 19.363934,61.8329709 19.363934,60.7259754 L19.363934,15.6194791 Z" id="Rectangle-212" fill="#FFFFFF"></path>
                        <rect id="Path-2" stroke="#C6D0DA" x="16" y="8" width="47" height="63" rx="4"></rect>
                    </g>
                </g>
            </g>
        </g>
    </g>
</svg>