<?xml version="1.0" encoding="UTF-8" standalone="no"?>
<svg width="80px" height="80px" viewBox="0 0 80 80" version="1.1" xmlns="http://www.w3.org/2000/svg" xmlns:xlink="http://www.w3.org/1999/xlink" xmlns:sketch="http://www.bohemiancoding.com/sketch/ns">
    <!-- Generator: Sketch 3.3.2 (12043) - http://www.bohemiancoding.com/sketch -->
    <title>scrn-crt_screen</title>
    <desc>Created with Sketch.</desc>
    <defs></defs>
    <g id="hp" stroke="none" stroke-width="1" fill="none" fill-rule="evenodd" sketch:type="MSPage">
        <g id="-hp_grid" sketch:type="MSArtboardGroup" transform="translate(-185.000000, -1972.000000)" fill="#FFFFFF">
            <g id="hovers" sketch:type="MSLayerGroup" transform="translate(20.000000, 719.000000)">
                <g id="commission-hovers" transform="translate(165.000000, 435.000000)" sketch:type="MSShapeGroup">
                    <g id="scrn-crt_screen" transform="translate(0.000000, 818.000000)">
                        <path d="M0,1.99749826 C0,0.894310431 0.8984375,0 1.99749826,0 L78.0025017,0 C79.1056896,0 80,0.8984375 80,1.99749826 L80,78.0025017 C80,79.1056896 79.1015625,80 78.0025017,80 L1.99749826,80 C0.894310431,80 0,79.1015625 0,78.0025017 L0,1.99749826 Z M15,15 L65,15 L65,65 L15,65 L15,15 Z" id="Rectangle-212-Copy-6" transform="translate(40.000000, 40.000000) rotate(-90.000000) translate(-40.000000, -40.000000) "></path>
                        <rect id="Rectangle-215" stroke="#C6D0DA" stroke-width="2" x="21" y="65" width="38" height="3"></rect>
                        <rect id="Rectangle-214" stroke="#C6D0DA" x="19" y="68" width="42" height="5"></rect>
                        <path d="M10,10.9952381 C10,9.89329855 10.8947304,9 11.9963074,9 L68.0036926,9 C69.1062227,9 70,9.89533389 70,10.9952381 L70,64.0047619 C70,65.1067015 69.1052696,66 68.0036926,66 L11.9963074,66 C10.8937773,66 10,65.1046661 10,64.0047619 L10,10.9952381 Z M15,16.9974922 C15,15.8943077 15.8890643,15 16.9909141,15 L63.0090859,15 C64.1086374,15 65,15.8966603 65,16.9974922 L65,55.0025078 C65,56.1056923 64.1109357,57 63.0090859,57 L16.9909141,57 C15.8913626,57 15,56.1033397 15,55.0025078 L15,16.9974922 Z" id="Rectangle-211" stroke="#C6D0DA"></path>
                        <circle id="Oval-105" stroke="#C6D0DA" cx="57" cy="63" r="5"></circle>
                    </g>
                </g>
            </g>
        </g>
    </g>
</svg>