<?xml version="1.0" encoding="UTF-8" standalone="no"?>
<svg width="80px" height="80px" viewBox="0 0 80 80" version="1.1" xmlns="http://www.w3.org/2000/svg" xmlns:xlink="http://www.w3.org/1999/xlink" xmlns:sketch="http://www.bohemiancoding.com/sketch/ns">
    <!-- Generator: Sketch 3.3.2 (12043) - http://www.bohemiancoding.com/sketch -->
    <title>scrn-imac_G3</title>
    <desc>Created with Sketch.</desc>
    <defs></defs>
    <g id="hp" stroke="none" stroke-width="1" fill="none" fill-rule="evenodd" sketch:type="MSPage">
        <g id="-hp_grid" sketch:type="MSArtboardGroup" transform="translate(-455.000000, -1972.000000)">
            <g id="hovers" sketch:type="MSLayerGroup" transform="translate(20.000000, 719.000000)">
                <g id="commission-hovers" transform="translate(165.000000, 435.000000)" sketch:type="MSShapeGroup">
                    <g id="scrn-imac_G3" transform="translate(270.000000, 818.000000)">
                        <path d="M0,1.99749826 C0,0.894310431 0.8984375,0 1.99749826,0 L78.0025017,0 C79.1056896,0 80,0.8984375 80,1.99749826 L80,78.0025017 C80,79.1056896 79.1015625,80 78.0025017,80 L1.99749826,80 C0.894310431,80 0,79.1015625 0,78.0025017 L0,1.99749826 Z M15,15 L65,15 L65,65 L15,65 L15,15 Z" id="Rectangle-212-Copy-7" fill="#FFFFFF" transform="translate(40.000000, 40.000000) rotate(-90.000000) translate(-40.000000, -40.000000) "></path>
                        <path d="M11.7187475,19.0000811 C11.874079,14.0294736 16.0273819,10 20.9973688,10 L59.0026312,10 C63.9717408,10 68.1258666,14.0277313 68.2812525,19.0000811 L69.7187475,64.9999189 C69.874079,69.9705264 65.9700641,74 61.0011693,74 L18.9988307,74 C14.0289137,74 10.1258666,69.9722687 10.2812525,64.9999189 L11.7187475,19.0000811 Z M16.8472167,20.0068935 C16.9119511,17.2416626 19.2021052,15 21.9605664,15 L58.0394318,15 C60.7987225,15 63.087855,17.2334545 63.1527816,20.0068935 L63.878173,50.9931065 C63.9429074,53.7583374 61.7610244,56 58.9953432,56 L21.0046551,56 C18.2432083,56 16.0568987,53.7665455 16.1218253,50.9931065 L16.8472167,20.0068935 Z" id="Rectangle-211" stroke="#C6D0DA" fill="#FFFFFF"></path>
                        <ellipse id="Oval-105" fill="#C6D0DA" cx="60.5" cy="67" rx="4.5" ry="3"></ellipse>
                        <rect id="Rectangle-227" stroke="#C6D0DA" x="30" y="64" width="21" height="2" rx="1"></rect>
                        <ellipse id="Oval-106" fill="#C6D0DA" cx="19.5" cy="67" rx="4.5" ry="3"></ellipse>
                    </g>
                </g>
            </g>
        </g>
    </g>
</svg>