<?xml version="1.0" encoding="UTF-8" standalone="no"?>
<svg width="80px" height="80px" viewBox="0 0 80 80" version="1.1" xmlns="http://www.w3.org/2000/svg" xmlns:xlink="http://www.w3.org/1999/xlink" xmlns:sketch="http://www.bohemiancoding.com/sketch/ns">
    <!-- Generator: Sketch 3.3.2 (12043) - http://www.bohemiancoding.com/sketch -->
    <title>scrn-Power_Mac_5000</title>
    <desc>Created with Sketch.</desc>
    <defs></defs>
    <g id="hp" stroke="none" stroke-width="1" fill="none" fill-rule="evenodd" sketch:type="MSPage">
        <g id="-hp_grid" sketch:type="MSArtboardGroup" transform="translate(-545.000000, -1972.000000)">
            <g id="hovers" sketch:type="MSLayerGroup" transform="translate(20.000000, 719.000000)">
                <g id="commission-hovers" transform="translate(165.000000, 435.000000)" sketch:type="MSShapeGroup">
                    <g id="scrn-Power_Mac_5000" transform="translate(360.000000, 818.000000)">
                        <path d="M0,1.99749826 C0,0.894310431 0.8984375,0 1.99749826,0 L78.0025017,0 C79.1056896,0 80,0.8984375 80,1.99749826 L80,78.0025017 C80,79.1056896 79.1015625,80 78.0025017,80 L1.99749826,80 C0.894310431,80 0,79.1015625 0,78.0025017 L0,1.99749826 Z M15,15 L65,15 L65,65 L15,65 L15,15 Z" id="Rectangle-212-Copy-8" fill="#FFFFFF" transform="translate(40.000000, 40.000000) rotate(-90.000000) translate(-40.000000, -40.000000) "></path>
                        <rect id="Rectangle-231" fill="#C6D0DA" x="21" y="66" width="38" height="6"></rect>
                        <path d="M14,10 L66,10 L66,54 L14,54 L14,10 Z M19,17.9982138 C19,16.8946308 19.8966603,16 20.9974922,16 L59.0025078,16 C60.1056923,16 61,16.8943377 61,17.9982138 L61,45.0017862 C61,46.1053692 60.1033397,47 59.0025078,47 L20.9974922,47 C19.8943077,47 19,46.1056623 19,45.0017862 L19,17.9982138 Z" id="Rectangle-228" stroke="#C6D0DA" fill="#FFFFFF"></path>
                        <path d="M13,54 C13,54 30.8103841,53 40,53 C48.1437174,53 67,54 67,54 L66,67 L14,67 L13,54 Z" id="Rectangle-230" stroke="#C6D0DA" fill="#FFFFFF" transform="translate(40.000000, 60.000000) scale(1, -1) translate(-40.000000, -60.000000) "></path>
                        <path d="M19.5,53.5 L19.5,65.5415945" id="Line" stroke="#C6D0DA" stroke-linecap="square"></path>
                        <path d="M60.5,53.5 L60.5,65.5415945" id="Line-12" stroke="#C6D0DA" stroke-linecap="square"></path>
                        <path d="M22.5,57.5 L41.5,57.5" id="Line" stroke="#C6D0DA" stroke-width="3"></path>
                        <path d="M44.5,57.5 L57.5,57.5" id="Line-11" stroke="#C6D0DA"></path>
                    </g>
                </g>
            </g>
        </g>
    </g>
</svg>