<?xml version="1.0" encoding="UTF-8" standalone="no"?>
<svg width="19px" height="15px" viewBox="0 0 19 15" version="1.1" xmlns="http://www.w3.org/2000/svg" xmlns:xlink="http://www.w3.org/1999/xlink" xmlns:sketch="http://www.bohemiancoding.com/sketch/ns">
    <!-- Generator: bin/sketchtool 1.3 (232) - http://www.bohemiancoding.com/sketch -->
    <title>sml-twitter</title>
    <desc>Created with bin/sketchtool.</desc>
    <defs></defs>
    <g id="hp" stroke="none" stroke-width="1" fill="none" fill-rule="evenodd" sketch:type="MSPage">
        <g id="-hp_grid" sketch:type="MSArtboardGroup" transform="translate(-764.000000, -2296.000000)" fill="#9ACAE2">
            <g id="Footer" sketch:type="MSLayerGroup" transform="translate(0.000000, 2192.000000)">
                <g id="contact-icons-+-We-Socialize—" transform="translate(764.000000, 10.000000)" sketch:type="MSShapeGroup">
                    <g id="contact-icons" transform="translate(0.000000, 34.000000)">
                        <g id="sml-twitter" transform="translate(0.000000, 60.000000)">
                            <path d="M18.165784,1.7064 C17.5119624,1.995 16.8136714,2.19 16.0775211,2.28 C16.8286948,1.83 17.4067981,1.1172 17.6772207,0.27 C16.974723,0.6864 16.1977089,0.99 15.3678122,1.1514 C14.7025728,0.4422 13.7560939,0 12.7122629,0 C10.702723,0 9.07658216,1.6272 9.07658216,3.6336 C9.07658216,3.9186 9.10662911,4.1964 9.17032864,4.4628 C6.14700469,4.3128 3.46501408,2.865 1.67361502,0.6636 C1.3617277,1.2 1.18144601,1.8264 1.18144601,2.49 C1.18144601,3.75 1.8274554,4.8636 2.80398122,5.5164 C2.20304225,5.5014 1.63996244,5.3364 1.15139906,5.0622 L1.15139906,5.1078 C1.15139906,6.87 2.40615962,8.3364 4.06955869,8.67 C3.76548357,8.7522 3.44277934,8.7972 3.11226291,8.7972 C2.87909859,8.7972 2.65014085,8.775 2.42839437,8.73 C2.89051643,10.1736 4.23541784,11.2236 5.8279061,11.2536 C4.58456338,12.2286 3.01430986,12.81 1.30944601,12.81 C1.01618779,12.81 0.72713615,12.7914 0.441690141,12.7578 C2.04559624,13.8 3.9571831,14.4 6.00758685,14.4 C12.7044507,14.4 16.3629671,8.8614 16.3629671,4.0572 C16.3629671,3.9 16.3587606,3.7422 16.3515493,3.5886 C17.0612582,3.075 17.6772207,2.4378 18.165784,1.7064" id="Fill-122"></path>
                        </g>
                    </g>
                </g>
            </g>
        </g>
    </g>
</svg>