<?xml version="1.0" encoding="UTF-8" standalone="no"?>
<svg width="77px" height="37px" viewBox="0 0 77 37" version="1.1" xmlns="http://www.w3.org/2000/svg" xmlns:xlink="http://www.w3.org/1999/xlink" xmlns:sketch="http://www.bohemiancoding.com/sketch/ns">
    <!-- Generator: bin/sketchtool 1.3 (232) - http://www.bohemiancoding.com/sketch -->
    <title>tab-icons-and-titles</title>
    <desc>Created with bin/sketchtool.</desc>
    <defs></defs>
    <g id="hp" stroke="none" stroke-width="1" fill="none" fill-rule="evenodd" sketch:type="MSPage">
        <g id="-hp_grid" sketch:type="MSArtboardGroup" transform="translate(-346.000000, -1270.000000)" fill="#32477D">
            <g id="icon-grid-+-icons-and-titles-+-artists-only" sketch:type="MSLayerGroup" transform="translate(67.000000, 1257.000000)">
                <g id="icons-and-titles" transform="translate(279.000000, 13.000000)" sketch:type="MSShapeGroup">
                    <g id="tab-icons-and-titles">
                        <rect id="Rectangle-322" x="4" y="0" width="4.02162137" height="4.04347801"></rect>
                        <rect id="Rectangle-321" x="40" y="0" width="4.02162137" height="4.04347801"></rect>
                        <rect id="Rectangle-320" x="12" y="1" width="8" height="1"></rect>
                        <rect id="Rectangle-332" x="22" y="1" width="11" height="1"></rect>
                        <rect id="Rectangle-325" x="0" y="16" width="4.02162137" height="4.04347801"></rect>
                        <rect id="Rectangle-324" x="29" y="16" width="4.02162137" height="4.04347801"></rect>
                        <rect id="Rectangle-323" x="8" y="17" width="4" height="1"></rect>
                        <rect id="Rectangle-334" x="14" y="17" width="8" height="1"></rect>
                        <rect id="Rectangle-328" x="4" y="32" width="4.02162137" height="4.04347801"></rect>
                        <rect id="Rectangle-327" x="51" y="32" width="4.02162137" height="4.04347801"></rect>
                        <rect id="Rectangle-331" x="48" y="1" width="10" height="1"></rect>
                        <rect id="Rectangle-333" x="60" y="1" width="7" height="1"></rect>
                        <rect id="Rectangle-330" x="37" y="17" width="14" height="1"></rect>
                        <rect id="Rectangle-335" x="53" y="17" width="20" height="1"></rect>
                        <rect id="Rectangle-329" x="59" y="33" width="10" height="1"></rect>
                        <rect id="Rectangle-337" x="71" y="33" width="6" height="1"></rect>
                        <rect id="Rectangle-326" x="12" y="33" width="10" height="1"></rect>
                        <rect id="Rectangle-336" x="24" y="33" width="20" height="1"></rect>
                    </g>
                </g>
            </g>
        </g>
    </g>
</svg>