<?xml version="1.0" encoding="UTF-8" standalone="no"?>
<svg width="54px" height="62px" viewBox="0 0 54 62" version="1.1" xmlns="http://www.w3.org/2000/svg" xmlns:xlink="http://www.w3.org/1999/xlink" xmlns:sketch="http://www.bohemiancoding.com/sketch/ns">
    <!-- Generator: bin/sketchtool 1.3 (232) - http://www.bohemiancoding.com/sketch -->
    <title>scrn-Power_Mac_5000</title>
    <desc>Created with bin/sketchtool.</desc>
    <defs></defs>
    <g id="hp" stroke="none" stroke-width="1" fill="none" fill-rule="evenodd" sketch:type="MSPage">
        <g id="-hp_grid" sketch:type="MSArtboardGroup" transform="translate(-558.000000, -1982.000000)">
            <g id="hovers" sketch:type="MSLayerGroup" transform="translate(20.000000, 719.000000)">
                <g id="commission-hovers" transform="translate(175.000000, 615.000000)" sketch:type="MSShapeGroup">
                    <g id="scrn-Power_Mac_5000" transform="translate(363.000000, 648.000000)">
                        <rect id="Rectangle-231" fill="#C6D0DA" x="8" y="56" width="38" height="6"></rect>
                        <path d="M1,0 L53,0 L53,44 L1,44 L1,0 Z M6,8.28752336 C6,7.18195474 6.89666034,6.28571429 7.99749218,6.28571429 L46.0025078,6.28571429 C47.1056923,6.28571429 48,7.17568437 48,8.28752336 L48,35.7124766 C48,36.8180453 47.1033397,37.7142857 46.0025078,37.7142857 L7.99749218,37.7142857 C6.89430771,37.7142857 6,36.8243156 6,35.7124766 L6,8.28752336 Z" id="Rectangle-228" stroke="#C6D0DA" fill="#FFFFFF"></path>
                        <path d="M0,44 C0,44 17.8103841,43 27,43 C35.1437174,43 54,44 54,44 L53,57 L1,57 L0,44 Z" id="Rectangle-230" stroke="#C6D0DA" fill="#FFFFFF" transform="translate(27.000000, 50.000000) scale(1, -1) translate(-27.000000, -50.000000) "></path>
                        <path d="M6.5,43.5 L6.5,55.5415945" id="Line" stroke="#C6D0DA" stroke-linecap="square"></path>
                        <path d="M47.5,43.5 L47.5,55.5415945" id="Line-12" stroke="#C6D0DA" stroke-linecap="square"></path>
                        <path d="M9.5,47.5 L28.5,47.5" id="Line" stroke="#C6D0DA" stroke-width="3"></path>
                        <path d="M31.5,47.5 L44.5,47.5" id="Line-11" stroke="#C6D0DA"></path>
                    </g>
                </g>
            </g>
        </g>
    </g>
</svg>