<?xml version="1.0" encoding="UTF-8" standalone="no"?>
<svg width="75px" height="59px" viewBox="0 0 75 59" version="1.1" xmlns="http://www.w3.org/2000/svg" xmlns:xlink="http://www.w3.org/1999/xlink" xmlns:sketch="http://www.bohemiancoding.com/sketch/ns">
    <!-- Generator: bin/sketchtool 1.3 (232) - http://www.bohemiancoding.com/sketch -->
    <title>scrn-smartphone_horizontal</title>
    <desc>Created with bin/sketchtool.</desc>
    <defs></defs>
    <g id="hp" stroke="none" stroke-width="1" fill="none" fill-rule="evenodd" sketch:type="MSPage">
        <g id="-hp_grid" sketch:type="MSArtboardGroup" transform="translate(-211.000000, -1350.000000)">
            <g id="hovers" sketch:type="MSLayerGroup" transform="translate(20.000000, 719.000000)">
                <g id="commission-hovers" transform="translate(175.000000, 615.000000)" sketch:type="MSShapeGroup">
                    <g id="scrn-smartphone_horizontal" transform="translate(53.000000, 45.500000) rotate(-90.000000) translate(-53.000000, -45.500000) translate(24.000000, 8.000000)">
                        <path d="M0,3.99043333 C0,2.89114735 0.887832139,2 1.99649128,2 L56.0035087,2 C57.1061404,2 58,2.89665296 58,3.99043333 L58,73.0095667 C58,74.1088526 57.1121679,75 56.0035087,75 L1.99649128,75 C0.893859594,75 0,74.103347 0,73.0095667 L0,3.99043333 Z M12.09736,14.6194791 C12.09736,13.5141931 12.9831263,12.6181818 14.0943218,12.6181818 L43.2161468,12.6181818 C44.3190383,12.6181818 45.2131086,13.5124837 45.2131086,14.6194791 L45.2131086,59.7259754 C45.2131086,60.8312614 44.3273423,61.7272727 43.2161468,61.7272727 L14.0943218,61.7272727 C12.9914302,61.7272727 12.09736,60.8329709 12.09736,59.7259754 L12.09736,14.6194791 Z" id="Rectangle-212" fill="#FFFFFF"></path>
                        <rect id="Path-2" stroke="#C6D0DA" x="10.1872181" y="1" width="37.6255638" height="73" rx="4"></rect>
                    </g>
                </g>
            </g>
        </g>
    </g>
</svg>