<?xml version="1.0" encoding="UTF-8" standalone="no"?>
<svg width="19px" height="18px" viewBox="0 0 19 18" version="1.1" xmlns="http://www.w3.org/2000/svg" xmlns:xlink="http://www.w3.org/1999/xlink" xmlns:sketch="http://www.bohemiancoding.com/sketch/ns">
    <!-- Generator: bin/sketchtool 1.3 (232) - http://www.bohemiancoding.com/sketch -->
    <title>sml-github</title>
    <desc>Created with bin/sketchtool.</desc>
    <defs></defs>
    <g id="hp" stroke="none" stroke-width="1" fill="none" fill-rule="evenodd" sketch:type="MSPage">
        <g id="-hp_grid" sketch:type="MSArtboardGroup" transform="translate(-765.000000, -2323.000000)" fill="#9ACAE2">
            <g id="Footer" sketch:type="MSLayerGroup" transform="translate(0.000000, 2192.000000)">
                <g id="contact-icons-+-We-Socialize—" transform="translate(764.000000, 10.000000)" sketch:type="MSShapeGroup">
                    <g id="contact-icons" transform="translate(0.000000, 34.000000)">
                        <g id="sml-github" transform="translate(1.000000, 87.000000)">
                            <path d="M9.01348357,0 C4.0359061,0 0,4.0296 0,9.0006 C0,12.9768 2.58283568,16.35 6.16503286,17.5398 C6.61573709,17.6226 6.77979343,17.3448 6.77979343,17.106 C6.77979343,16.8924 6.77258216,16.3266 6.76777465,15.5754 C4.26065728,16.1196 3.73123005,14.3688 3.73123005,14.3688 C3.32138967,13.3296 2.73066667,13.0524 2.73066667,13.0524 C1.91218779,12.4944 2.79256338,12.5052 2.79256338,12.5052 C3.69697653,12.5688 4.17352113,13.4328 4.17352113,13.4328 C4.97757746,14.8086 6.2828169,14.4114 6.79661972,14.181 C6.87834742,13.599 7.11151174,13.2024 7.36871362,12.9774 C5.36698592,12.7506 3.26309859,11.9784 3.26309859,8.5296 C3.26309859,7.5468 3.61404695,6.7434 4.19094836,6.1146 C4.09780282,5.8866 3.78892019,4.9716 4.27928638,3.7326 C4.27928638,3.7326 5.03586854,3.4908 6.75815962,4.6554 C7.47688263,4.4556 8.24788732,4.356 9.01468545,4.3524 C9.78028169,4.356 10.5512864,4.4556 11.2712113,4.6554 C12.9923005,3.4908 13.7476808,3.7326 13.7476808,3.7326 C14.2392488,4.9716 13.9297653,5.8866 13.8372207,6.1146 C14.4153239,6.7434 14.7638685,7.5468 14.7638685,8.5296 C14.7638685,11.9868 12.6563756,12.7476 10.6480376,12.9708 C10.9719437,13.2486 11.2603944,13.7976 11.2603944,14.637 C11.2603944,15.8406 11.2489765,16.8114 11.2489765,17.106 C11.2489765,17.3466 11.411831,17.6268 11.8691455,17.5392 C15.4477371,16.3464 18.028169,12.9756 18.028169,9.0006 C18.028169,4.0296 13.991662,0 9.01348357,0" id="Fill-123"></path>
                        </g>
                    </g>
                </g>
            </g>
        </g>
    </g>
</svg>