<?xml version="1.0" encoding="UTF-8" standalone="no"?>
<svg width="76px" height="36px" viewBox="0 0 76 36" version="1.1" xmlns="http://www.w3.org/2000/svg" xmlns:xlink="http://www.w3.org/1999/xlink" xmlns:sketch="http://www.bohemiancoding.com/sketch/ns">
    <!-- Generator: bin/sketchtool 1.3 (232) - http://www.bohemiancoding.com/sketch -->
    <title>tab-artists</title>
    <desc>Created with bin/sketchtool.</desc>
    <defs></defs>
    <g id="hp" stroke="none" stroke-width="1" fill="none" fill-rule="evenodd" sketch:type="MSPage">
        <g id="-hp_grid" sketch:type="MSArtboardGroup" transform="translate(-697.000000, -1270.000000)" fill="#32477D">
            <g id="icon-grid-+-icons-and-titles-+-artists-only" sketch:type="MSLayerGroup" transform="translate(67.000000, 1257.000000)">
                <g id="artists-only" transform="translate(630.000000, 13.000000)" sketch:type="MSShapeGroup">
                    <g id="tab-artists">
                        <rect id="Rectangle-322" x="4" y="0" width="4" height="4" rx="9"></rect>
                        <rect id="Rectangle-321" x="32" y="0" width="4" height="4" rx="9"></rect>
                        <rect id="Rectangle-320" x="12" y="1" width="13" height="1.04347801"></rect>
                        <rect id="Rectangle-325" x="0" y="16" width="4" height="4" rx="9"></rect>
                        <rect id="Rectangle-324" x="23" y="16" width="4" height="4" rx="9"></rect>
                        <rect id="Rectangle-334" x="8" y="17" width="8" height="1.04347801"></rect>
                        <rect id="Rectangle-328" x="4" y="32" width="4" height="4" rx="9"></rect>
                        <rect id="Rectangle-327" x="29" y="32" width="4" height="4" rx="9"></rect>
                        <rect id="Rectangle-331" x="40" y="1" width="10" height="1.04347801"></rect>
                        <rect id="Rectangle-343" x="57" y="0" width="4" height="4" rx="9"></rect>
                        <rect id="Rectangle-342" x="65" y="1" width="10" height="1.04347801"></rect>
                        <rect id="Rectangle-330" x="31" y="17" width="14" height="1.04347801"></rect>
                        <rect id="Rectangle-339" x="53" y="16" width="4" height="4" rx="9"></rect>
                        <rect id="Rectangle-338" x="61" y="17" width="14" height="1.04347801"></rect>
                        <rect id="Rectangle-329" x="37" y="33" width="10" height="1.04347801"></rect>
                        <rect id="Rectangle-341" x="55" y="32" width="4" height="4" rx="9"></rect>
                        <rect id="Rectangle-340" x="63" y="33" width="13" height="1.04347801"></rect>
                        <rect id="Rectangle-326" x="12" y="33" width="10" height="1.04347801"></rect>
                    </g>
                </g>
            </g>
        </g>
    </g>
</svg>